<svg width="202" height="98" viewBox="0 0 202 98" fill="none" xmlns="http://www.w3.org/2000/svg">
<g filter="url(#filter0_bi_5717_3000)">
<mask id="path-1-outside-1_5717_3000" maskUnits="userSpaceOnUse" x="0" y="-4" width="202" height="102" fill="black">
<rect fill="white" y="-4" width="202" height="102"/>
<path fill-rule="evenodd" clip-rule="evenodd" d="M201 -3H1V81.08C1 88.5446 1 92.277 3.29889 94.6123C3.32828 94.6421 3.3579 94.6717 3.38775 94.7011C5.72304 97 9.45536 97 16.92 97H93.2858L101 84.1429L108.714 97H185.08C192.545 97 196.277 97 198.612 94.7011C198.642 94.6717 198.672 94.6421 198.701 94.6123C201 92.277 201 88.5446 201 81.08V-3Z"/>
</mask>
<path fill-rule="evenodd" clip-rule="evenodd" d="M201 -3H1V81.08C1 88.5446 1 92.277 3.29889 94.6123C3.32828 94.6421 3.3579 94.6717 3.38775 94.7011C5.72304 97 9.45536 97 16.92 97H93.2858L101 84.1429L108.714 97H185.08C192.545 97 196.277 97 198.612 94.7011C198.642 94.6717 198.672 94.6421 198.701 94.6123C201 92.277 201 88.5446 201 81.08V-3Z" fill="#050505"/>
<path fill-rule="evenodd" clip-rule="evenodd" d="M201 -3H1V81.08C1 88.5446 1 92.277 3.29889 94.6123C3.32828 94.6421 3.3579 94.6717 3.38775 94.7011C5.72304 97 9.45536 97 16.92 97H93.2858L101 84.1429L108.714 97H185.08C192.545 97 196.277 97 198.612 94.7011C198.642 94.6717 198.672 94.6421 198.701 94.6123C201 92.277 201 88.5446 201 81.08V-3Z" fill="url(#paint0_linear_5717_3000)" fill-opacity="0.05"/>
<path d="M1 -3V-4H0V-3H1ZM201 -3H202V-4H201V-3ZM3.29889 94.6123L4.01156 93.9108L4.01153 93.9107L3.29889 94.6123ZM3.38775 94.7011L2.68618 95.4137L2.68622 95.4137L3.38775 94.7011ZM93.2858 97V98H93.852L94.1433 97.5145L93.2858 97ZM101 84.1429L101.858 83.6284L101 82.1992L100.143 83.6284L101 84.1429ZM108.714 97L107.857 97.5145L108.148 98H108.714V97ZM198.612 94.7011L199.314 95.4137L199.314 95.4137L198.612 94.7011ZM198.701 94.6123L197.988 93.9107L198.701 94.6123ZM1 -2H201V-4H1V-2ZM2 81.08V-3H0V81.08H2ZM4.01153 93.9107C3.07503 92.9594 2.55139 91.6862 2.27861 89.6376C2.00208 87.5609 2 84.8403 2 81.08H0C0 84.7844 -0.00208259 87.6622 0.296111 89.9016C0.598056 92.1692 1.22386 93.9298 2.58625 95.3138L4.01153 93.9107ZM4.08931 93.9885C4.06315 93.9627 4.03723 93.9368 4.01156 93.9108L2.58622 95.3138C2.61932 95.3474 2.65264 95.3807 2.68618 95.4137L4.08931 93.9885ZM16.92 96C13.1597 96 10.4391 95.9979 8.36236 95.7214C6.31381 95.4486 5.04061 94.925 4.08928 93.9885L2.68622 95.4137C4.07018 96.7761 5.83078 97.4019 8.09837 97.7039C10.3378 98.0021 13.2156 98 16.92 98V96ZM93.2858 96H16.92V98H93.2858V96ZM94.1433 97.5145L101.858 84.6574L100.143 83.6284L92.4283 96.4855L94.1433 97.5145ZM100.143 84.6574L107.857 97.5145L109.572 96.4855L101.858 83.6284L100.143 84.6574ZM185.08 96H108.714V98H185.08V96ZM197.911 93.9885C196.959 94.925 195.686 95.4486 193.638 95.7214C191.561 95.9979 188.84 96 185.08 96V98C188.784 98 191.662 98.0021 193.902 97.7039C196.169 97.4019 197.93 96.7761 199.314 95.4137L197.911 93.9885ZM197.988 93.9107C197.963 93.9368 197.937 93.9628 197.911 93.9886L199.314 95.4137C199.347 95.3807 199.381 95.3474 199.414 95.3138L197.988 93.9107ZM200 81.08C200 84.8403 199.998 87.5609 199.721 89.6376C199.449 91.6862 198.925 92.9594 197.988 93.9107L199.414 95.3138C200.776 93.9298 201.402 92.1692 201.704 89.9016C202.002 87.6622 202 84.7844 202 81.08H200ZM200 -3V81.08H202V-3H200Z" fill="url(#paint1_linear_5717_3000)" mask="url(#path-1-outside-1_5717_3000)"/>
</g>
<mask id="path-3-outside-2_5717_3000" maskUnits="userSpaceOnUse" x="16.209" y="30.8107" width="28.6521" height="29.2395" fill="black">
<rect fill="white" x="16.209" y="30.8107" width="28.6521" height="29.2395"/>
<path fill-rule="evenodd" clip-rule="evenodd" d="M28.413 47.9257C28.3372 47.9446 28.2612 47.9648 28.1851 47.9863L28.1392 47.8235L27.237 47.4869L27.741 46.4896L27.7553 46.4612L27.6426 46.0612C27.7639 46.0271 27.8848 45.9954 28.0054 45.9663L31.0303 39.9806L32.2113 37.6436L32.8887 40.1729L34.4572 46.029L35.5128 43.6419L36.808 40.7133L37.4096 43.8585L38.4597 49.3492L38.6578 50.3848L37.6132 50.5279L35.3179 50.8422L35.7971 52.694L36.0986 53.8591L34.8979 53.9421L31.7171 54.1619L30.9882 54.2123L30.7187 53.5332L29.6539 50.8502L29.183 49.6638L30.4477 49.4906L32.0273 49.2742L28.413 47.9257ZM33.3228 51.1155L31.9837 51.2989L32.3081 52.1163L33.5594 52.0298L33.3228 51.1155ZM32.3487 45.887L31.6343 43.2197L30.3861 45.6897C31.0652 45.6932 31.7219 45.7649 32.3487 45.887ZM32.6938 47.1203C32.7717 47.1277 32.8498 47.1364 32.9283 47.1463L32.9494 46.9785L33.7915 46.5112L33.1445 45.6001L33.1261 45.5742L33.178 45.1619C33.053 45.1462 32.9287 45.1329 32.8051 45.1221L28.9225 39.6537L27.4065 37.5186L27.1134 40.1206L26.4346 46.1449L25.0352 43.9418L23.3183 41.2387L23.1919 44.4385L22.9712 50.0243L22.9296 51.0778L23.9838 51.0637L26.3004 51.0327L26.1023 52.9352L25.9778 54.1323L27.1774 54.0355L30.3554 53.7791L31.0837 53.7203L31.2491 53.0087L31.9024 50.197L32.1913 48.9537L30.915 48.9708L29.3207 48.9921L32.6938 47.1203ZM28.314 51.0058L29.6654 50.9877L29.4664 51.8443L28.2162 51.9452L28.314 51.0058ZM28.4985 45.6905L28.8076 42.9466L30.4098 45.2031C29.7387 45.3077 29.1001 45.4765 28.4985 45.6905Z"/>
</mask>
<path fill-rule="evenodd" clip-rule="evenodd" d="M28.413 47.9257C28.3372 47.9446 28.2612 47.9648 28.1851 47.9863L28.1392 47.8235L27.237 47.4869L27.741 46.4896L27.7553 46.4612L27.6426 46.0612C27.7639 46.0271 27.8848 45.9954 28.0054 45.9663L31.0303 39.9806L32.2113 37.6436L32.8887 40.1729L34.4572 46.029L35.5128 43.6419L36.808 40.7133L37.4096 43.8585L38.4597 49.3492L38.6578 50.3848L37.6132 50.5279L35.3179 50.8422L35.7971 52.694L36.0986 53.8591L34.8979 53.9421L31.7171 54.1619L30.9882 54.2123L30.7187 53.5332L29.6539 50.8502L29.183 49.6638L30.4477 49.4906L32.0273 49.2742L28.413 47.9257ZM33.3228 51.1155L31.9837 51.2989L32.3081 52.1163L33.5594 52.0298L33.3228 51.1155ZM32.3487 45.887L31.6343 43.2197L30.3861 45.6897C31.0652 45.6932 31.7219 45.7649 32.3487 45.887ZM32.6938 47.1203C32.7717 47.1277 32.8498 47.1364 32.9283 47.1463L32.9494 46.9785L33.7915 46.5112L33.1445 45.6001L33.1261 45.5742L33.178 45.1619C33.053 45.1462 32.9287 45.1329 32.8051 45.1221L28.9225 39.6537L27.4065 37.5186L27.1134 40.1206L26.4346 46.1449L25.0352 43.9418L23.3183 41.2387L23.1919 44.4385L22.9712 50.0243L22.9296 51.0778L23.9838 51.0637L26.3004 51.0327L26.1023 52.9352L25.9778 54.1323L27.1774 54.0355L30.3554 53.7791L31.0837 53.7203L31.2491 53.0087L31.9024 50.197L32.1913 48.9537L30.915 48.9708L29.3207 48.9921L32.6938 47.1203ZM28.314 51.0058L29.6654 50.9877L29.4664 51.8443L28.2162 51.9452L28.314 51.0058ZM28.4985 45.6905L28.8076 42.9466L30.4098 45.2031C29.7387 45.3077 29.1001 45.4765 28.4985 45.6905Z" fill="url(#paint2_linear_5717_3000)"/>
<path d="M28.1851 47.9863L27.2226 48.2575L27.4938 49.22L28.4563 48.9488L28.1851 47.9863ZM28.413 47.9257L28.7626 46.9888L28.4719 46.8803L28.1709 46.9555L28.413 47.9257ZM28.1392 47.8235L29.1017 47.5523L28.9641 47.064L28.4888 46.8866L28.1392 47.8235ZM27.237 47.4869L26.3445 47.0359L25.8405 48.0332L26.8874 48.4238L27.237 47.4869ZM27.741 46.4896L26.8484 46.0386L26.8484 46.0386L27.741 46.4896ZM27.7553 46.4612L28.6478 46.9123L28.8234 46.5647L28.7178 46.19L27.7553 46.4612ZM27.6426 46.0612L27.3713 45.0987L26.4088 45.37L26.6801 46.3325L27.6426 46.0612ZM28.0054 45.9663L28.2403 46.9383L28.6895 46.8298L28.8979 46.4173L28.0054 45.9663ZM31.0303 39.9806L31.9228 40.4316L31.0303 39.9806ZM32.2113 37.6436L33.1773 37.3849L32.4998 34.8555L31.3188 37.1926L32.2113 37.6436ZM32.8887 40.1729L31.9228 40.4316L32.8887 40.1729ZM34.4572 46.029L33.4912 46.2877L34.2248 49.0268L35.3717 46.4334L34.4572 46.029ZM35.5128 43.6419L36.4274 44.0464L36.4274 44.0464L35.5128 43.6419ZM36.808 40.7133L37.7902 40.5254L37.1886 37.3801L35.8934 40.3088L36.808 40.7133ZM37.4096 43.8585L38.3918 43.6707L37.4096 43.8585ZM38.4597 49.3492L39.4419 49.1614L38.4597 49.3492ZM38.6578 50.3848L38.7935 51.3755L39.838 51.2325L39.64 50.1969L38.6578 50.3848ZM37.6132 50.5279L37.7489 51.5186L37.6132 50.5279ZM35.3179 50.8422L35.1822 49.8515L34.0681 50.004L34.3498 51.0927L35.3179 50.8422ZM35.7971 52.694L34.829 52.9445L35.7971 52.694ZM36.0986 53.8591L36.1675 54.8568L37.3682 54.7738L37.0667 53.6086L36.0986 53.8591ZM34.8979 53.9421L34.829 52.9445L34.8979 53.9421ZM31.7171 54.1619L31.786 55.1595L31.786 55.1595L31.7171 54.1619ZM30.9882 54.2123L30.0587 54.5812L30.3283 55.2603L31.0572 55.2099L30.9882 54.2123ZM30.7187 53.5332L31.6482 53.1643L30.7187 53.5332ZM29.6539 50.8502L28.7244 51.2191L29.6539 50.8502ZM29.183 49.6638L29.0473 48.673L27.7827 48.8462L28.2535 50.0326L29.183 49.6638ZM30.4477 49.4906L30.5834 50.4813L30.4477 49.4906ZM32.0273 49.2742L32.163 50.265L32.3769 48.3373L32.0273 49.2742ZM31.9837 51.2989L31.848 50.3081L30.5834 50.4813L31.0542 51.6677L31.9837 51.2989ZM33.3228 51.1155L34.2909 50.865L34.0681 50.004L33.1871 50.1247L33.3228 51.1155ZM32.3081 52.1163L31.3786 52.4852L31.6482 53.1643L32.3771 53.1139L32.3081 52.1163ZM33.5594 52.0298L33.6283 53.0275L34.829 52.9445L34.5275 51.7793L33.5594 52.0298ZM31.6343 43.2197L32.6002 42.961L31.9228 40.4316L30.7418 42.7687L31.6343 43.2197ZM32.3487 45.887L32.1575 46.8686L33.7288 47.1746L33.3146 45.6283L32.3487 45.887ZM30.3861 45.6897L29.4935 45.2387L28.7644 46.6815L30.381 46.6897L30.3861 45.6897ZM32.9283 47.1463L32.8034 48.1384L33.7956 48.2633L33.9205 47.2711L32.9283 47.1463ZM32.6938 47.1203L32.7888 46.1248L32.4799 46.0954L32.2086 46.2459L32.6938 47.1203ZM32.9494 46.9785L32.4642 46.1041L32.0206 46.3503L31.9572 46.8536L32.9494 46.9785ZM33.7915 46.5112L34.2767 47.3856L35.2537 46.8435L34.6068 45.9323L33.7915 46.5112ZM33.1445 45.6001L32.3292 46.179L33.1445 45.6001ZM33.1261 45.5742L32.134 45.4493L32.0853 45.8357L32.3108 46.1531L33.1261 45.5742ZM33.178 45.1619L34.1702 45.2868L34.2951 44.2946L33.3029 44.1697L33.178 45.1619ZM32.8051 45.1221L31.9897 45.701L32.2573 46.0778L32.7176 46.1182L32.8051 45.1221ZM28.9225 39.6537L29.7378 39.0747L28.9225 39.6537ZM27.4065 37.5186L28.2219 36.9397L26.706 34.8046L26.4128 37.4066L27.4065 37.5186ZM27.1134 40.1206L28.1071 40.2326L28.1071 40.2326L27.1134 40.1206ZM26.4346 46.1449L25.5905 46.6811L27.1109 49.0747L27.4283 46.2569L26.4346 46.1449ZM25.0352 43.9418L24.1911 44.4779L24.1911 44.4779L25.0352 43.9418ZM23.3183 41.2387L24.1624 40.7025L22.4455 37.9994L22.3191 41.1992L23.3183 41.2387ZM23.1919 44.4385L22.1927 44.399L23.1919 44.4385ZM22.9712 50.0243L21.972 49.9849L21.972 49.9849L22.9712 50.0243ZM22.9296 51.0778L21.9304 51.0384L21.8888 52.0919L22.943 52.0777L22.9296 51.0778ZM23.9838 51.0637L23.9705 50.0638L23.9838 51.0637ZM26.3004 51.0327L27.295 51.1362L27.4114 50.0177L26.287 50.0328L26.3004 51.0327ZM26.1023 52.9352L27.097 53.0387L27.097 53.0387L26.1023 52.9352ZM25.9778 54.1323L24.9831 54.0287L24.8585 55.2258L26.0582 55.129L25.9778 54.1323ZM27.1774 54.0355L27.097 53.0387L27.097 53.0387L27.1774 54.0355ZM30.3554 53.7791L30.4359 54.7758L30.4359 54.7758L30.3554 53.7791ZM31.0837 53.7203L31.1641 54.7171L31.8924 54.6583L32.0578 53.9467L31.0837 53.7203ZM31.2491 53.0087L30.275 52.7823L31.2491 53.0087ZM31.9024 50.197L32.8765 50.4233L32.8765 50.4233L31.9024 50.197ZM32.1913 48.9537L33.1654 49.18L33.4543 47.9367L32.1779 47.9538L32.1913 48.9537ZM30.915 48.9708L30.9284 49.9707L30.915 48.9708ZM29.3207 48.9921L28.8355 48.1177L29.3341 49.992L29.3207 48.9921ZM29.6654 50.9877L30.6395 51.214L30.9284 49.9707L29.652 49.9877L29.6654 50.9877ZM28.314 51.0058L28.3006 50.0058L27.4114 50.0177L27.3193 50.9022L28.314 51.0058ZM29.4664 51.8443L29.5468 52.8411L30.275 52.7823L30.4404 52.0707L29.4664 51.8443ZM28.2162 51.9452L27.2216 51.8417L27.097 53.0387L28.2966 52.9419L28.2162 51.9452ZM28.8076 42.9466L29.623 42.3677L28.1071 40.2326L27.8139 42.8346L28.8076 42.9466ZM28.4985 45.6905L27.5048 45.5786L27.3255 47.1693L28.8337 46.6326L28.4985 45.6905ZM30.4098 45.2031L30.5638 46.1912L32.1611 45.9423L31.2252 44.6242L30.4098 45.2031ZM28.4563 48.9488C28.5227 48.9301 28.589 48.9125 28.6552 48.896L28.1709 46.9555C28.0854 46.9768 27.9996 46.9996 27.9138 47.0238L28.4563 48.9488ZM27.1767 48.0948L27.2226 48.2575L29.1476 47.715L29.1017 47.5523L27.1767 48.0948ZM26.8874 48.4238L27.7897 48.7605L28.4888 46.8866L27.5865 46.55L26.8874 48.4238ZM26.8484 46.0386L26.3445 47.0359L28.1295 47.9379L28.6335 46.9406L26.8484 46.0386ZM26.8628 46.0102L26.8484 46.0386L28.6335 46.9406L28.6478 46.9123L26.8628 46.0102ZM26.6801 46.3325L26.7928 46.7325L28.7178 46.19L28.6051 45.79L26.6801 46.3325ZM27.7705 44.9943C27.6378 45.0264 27.5047 45.0611 27.3713 45.0987L27.9138 47.0238C28.023 46.993 28.1319 46.9645 28.2403 46.9383L27.7705 44.9943ZM30.1378 39.5296L27.1129 45.5153L28.8979 46.4173L31.9228 40.4316L30.1378 39.5296ZM31.3188 37.1926L30.1378 39.5296L31.9228 40.4316L33.1038 38.0946L31.3188 37.1926ZM33.8547 39.9142L33.1773 37.3849L31.2453 37.9023L31.9228 40.4316L33.8547 39.9142ZM35.4231 45.7703L33.8547 39.9142L31.9228 40.4316L33.4912 46.2877L35.4231 45.7703ZM34.5982 43.2375L33.5426 45.6245L35.3717 46.4334L36.4274 44.0464L34.5982 43.2375ZM35.8934 40.3088L34.5982 43.2375L36.4274 44.0464L37.7225 41.1177L35.8934 40.3088ZM38.3918 43.6707L37.7902 40.5254L35.8258 40.9011L36.4274 44.0464L38.3918 43.6707ZM39.4419 49.1614L38.3918 43.6707L36.4274 44.0464L37.4775 49.5371L39.4419 49.1614ZM39.64 50.1969L39.4419 49.1614L37.4775 49.5371L37.6756 50.5727L39.64 50.1969ZM37.7489 51.5186L38.7935 51.3755L38.5221 49.394L37.4775 49.5371L37.7489 51.5186ZM35.4536 51.833L37.7489 51.5186L37.4775 49.5371L35.1822 49.8515L35.4536 51.833ZM36.7652 52.4435L36.286 50.5917L34.3498 51.0927L34.829 52.9445L36.7652 52.4435ZM37.0667 53.6086L36.7652 52.4435L34.829 52.9445L35.1305 54.1097L37.0667 53.6086ZM34.9669 54.9397L36.1675 54.8568L36.0296 52.8615L34.829 52.9445L34.9669 54.9397ZM31.786 55.1595L34.9669 54.9397L34.829 52.9445L31.6482 53.1643L31.786 55.1595ZM31.0572 55.2099L31.786 55.1595L31.6482 53.1643L30.9193 53.2147L31.0572 55.2099ZM29.7892 53.9021L30.0587 54.5812L31.9177 53.8434L31.6482 53.1643L29.7892 53.9021ZM28.7244 51.2191L29.7892 53.9021L31.6482 53.1643L30.5834 50.4813L28.7244 51.2191ZM28.2535 50.0326L28.7244 51.2191L30.5834 50.4813L30.1125 49.2949L28.2535 50.0326ZM30.312 48.4998L29.0473 48.673L29.3187 50.6545L30.5834 50.4813L30.312 48.4998ZM31.8916 48.2835L30.312 48.4998L30.5834 50.4813L32.163 50.265L31.8916 48.2835ZM28.0635 48.8626L31.6777 50.2111L32.3769 48.3373L28.7626 46.9888L28.0635 48.8626ZM32.1194 52.2896L33.4585 52.1062L33.1871 50.1247L31.848 50.3081L32.1194 52.2896ZM33.2376 51.7474L32.9132 50.93L31.0542 51.6677L31.3786 52.4852L33.2376 51.7474ZM33.4904 51.0322L32.2392 51.1187L32.3771 53.1139L33.6283 53.0275L33.4904 51.0322ZM32.3547 51.366L32.5913 52.2804L34.5275 51.7793L34.2909 50.865L32.3547 51.366ZM30.6683 43.4784L31.3827 46.1457L33.3146 45.6283L32.6002 42.961L30.6683 43.4784ZM31.2786 46.1407L32.5268 43.6707L30.7418 42.7687L29.4935 45.2387L31.2786 46.1407ZM32.5398 44.9054C31.8566 44.7724 31.1376 44.6935 30.3911 44.6897L30.381 46.6897C30.9929 46.6928 31.5872 46.7575 32.1575 46.8686L32.5398 44.9054ZM33.0532 46.1541C32.9647 46.1429 32.8766 46.1332 32.7888 46.1248L32.5989 48.1158C32.6668 48.1223 32.735 48.1298 32.8034 48.1384L33.0532 46.1541ZM31.9572 46.8536L31.9361 47.0214L33.9205 47.2711L33.9416 47.1034L31.9572 46.8536ZM33.3062 45.6369L32.4642 46.1041L33.4346 47.8529L34.2767 47.3856L33.3062 45.6369ZM32.3292 46.179L32.9761 47.0902L34.6068 45.9323L33.9599 45.0212L32.3292 46.179ZM32.3108 46.1531L32.3292 46.179L33.9599 45.0212L33.9415 44.9953L32.3108 46.1531ZM32.1859 45.037L32.134 45.4493L34.1183 45.6991L34.1702 45.2868L32.1859 45.037ZM32.7176 46.1182C32.8287 46.128 32.9406 46.1399 33.0532 46.1541L33.3029 44.1697C33.1654 44.1524 33.0286 44.1378 32.8926 44.1259L32.7176 46.1182ZM28.1071 40.2326L31.9897 45.701L33.6205 44.5431L29.7378 39.0747L28.1071 40.2326ZM26.5912 38.0975L28.1071 40.2326L29.7378 39.0747L28.2219 36.9397L26.5912 38.0975ZM28.1071 40.2326L28.4003 37.6306L26.4128 37.4066L26.1197 40.0087L28.1071 40.2326ZM27.4283 46.2569L28.1071 40.2326L26.1197 40.0087L25.4409 46.033L27.4283 46.2569ZM24.1911 44.4779L25.5905 46.6811L27.2788 45.6088L25.8794 43.4056L24.1911 44.4779ZM22.4742 41.7748L24.1911 44.4779L25.8794 43.4056L24.1624 40.7025L22.4742 41.7748ZM24.1911 44.4779L24.3175 41.2781L22.3191 41.1992L22.1927 44.399L24.1911 44.4779ZM23.9705 50.0638L24.1911 44.4779L22.1927 44.399L21.972 49.9849L23.9705 50.0638ZM23.9288 51.1173L23.9705 50.0638L21.972 49.9849L21.9304 51.0384L23.9288 51.1173ZM23.9705 50.0638L22.9162 50.0779L22.943 52.0777L23.9972 52.0636L23.9705 50.0638ZM26.287 50.0328L23.9705 50.0638L23.9972 52.0636L26.3137 52.0326L26.287 50.0328ZM27.097 53.0387L27.295 51.1362L25.3057 50.9292L25.1077 52.8317L27.097 53.0387ZM26.9724 54.2358L27.097 53.0387L25.1077 52.8317L24.9831 54.0287L26.9724 54.2358ZM27.097 53.0387L25.8973 53.1355L26.0582 55.129L27.2578 55.0322L27.097 53.0387ZM30.275 52.7823L27.097 53.0387L27.2578 55.0322L30.4359 54.7758L30.275 52.7823ZM31.0033 52.7236L30.275 52.7823L30.4359 54.7758L31.1641 54.7171L31.0033 52.7236ZM30.275 52.7823L30.1097 53.494L32.0578 53.9467L32.2231 53.235L30.275 52.7823ZM30.9284 49.9707L30.275 52.7823L32.2231 53.235L32.8765 50.4233L30.9284 49.9707ZM31.2173 48.7273L30.9284 49.9707L32.8765 50.4233L33.1654 49.18L31.2173 48.7273ZM30.9284 49.9707L32.2047 49.9536L32.1779 47.9538L30.9016 47.9708L30.9284 49.9707ZM29.3341 49.992L30.9284 49.9707L30.9016 47.9708L29.3074 47.9922L29.3341 49.992ZM32.2086 46.2459L28.8355 48.1177L29.806 49.8665L33.1791 47.9947L32.2086 46.2459ZM29.652 49.9877L28.3006 50.0058L28.3273 52.0057L29.6788 51.9876L29.652 49.9877ZM30.4404 52.0707L30.6395 51.214L28.6914 50.7613L28.4923 51.618L30.4404 52.0707ZM28.2966 52.9419L29.5468 52.8411L29.3859 50.8476L28.1358 50.9484L28.2966 52.9419ZM27.3193 50.9022L27.2216 51.8417L29.2108 52.0487L29.3086 51.1093L27.3193 50.9022ZM27.8139 42.8346L27.5048 45.5786L29.4922 45.8025L29.8014 43.0585L27.8139 42.8346ZM31.2252 44.6242L29.623 42.3677L27.9923 43.5255L29.5944 45.782L31.2252 44.6242ZM28.8337 46.6326C29.3811 46.4379 29.9591 46.2854 30.5638 46.1912L30.2558 44.215C29.5183 44.33 28.819 44.515 28.1632 44.7484L28.8337 46.6326Z" fill="#1D1D1D" mask="url(#path-3-outside-2_5717_3000)"/>
<path d="M36.5 41.2617L37 50.2617L32 49.7617L35 46.2617L31.5 40.2617L27.5 43.7617L23.5 50.2617H29.5L27.5 53.7617" stroke="#171717"/>
<path d="M46.0969 47.348L44.8189 49.112L44.5849 46.502L46.0969 46.448V47.348ZM46.0969 53H45.3949L44.9809 49.292L46.0969 47.78V53ZM44.0989 50.336L44.4049 46.916H44.4229L44.8909 50.84L44.0989 50.336ZM43.9009 53L44.0989 50.624L44.8909 51.128L45.0889 53H43.9009ZM42.7309 48.428V47.276L44.2429 46.484L44.0989 48.32L42.7309 48.428ZM42.7309 53V48.644L43.9549 48.554L43.5949 53H42.7309ZM42.7309 46.79L43.8649 44.468L44.2609 46.286L42.7309 47.042V46.79ZM42.7309 42.614H40.7509V42.488L42.1189 39.68H42.4789L43.6489 44.396L42.7309 46.268V42.614ZM40.7509 39.68H41.7949L40.7509 41.822V39.68ZM45.6469 42.092L44.4049 46.034L43.3789 41.84L45.6469 42.092ZM44.6749 39.68H46.3309L45.6829 41.804L43.4149 41.588L43.1809 40.652L44.6749 39.68ZM44.2069 39.68L43.1989 40.328L43.0189 39.68H44.2069ZM46.0969 44.522V46.268H44.6029L45.2869 44.036L46.0969 44.522ZM47.2489 39.68L48.0589 41.12V42.614H46.0969V44.252L45.4669 43.856L46.7809 39.68H47.2489ZM48.0589 39.68V40.454L47.6269 39.68H48.0589ZM56.9775 48.05L54.6195 48.464L53.2155 46.466L56.9775 47.6V48.05ZM56.9775 51.668L54.8715 48.644L56.9775 48.284V51.668ZM52.3695 50.462L51.5055 50.912L52.3695 48.428V50.462ZM53.6295 49.814V47.528H52.6755L52.9995 46.592L54.8175 49.184L53.6295 49.814ZM52.3695 53H50.9475L51.5775 51.218L52.3695 50.804V53ZM56.9775 53H53.6295V50.156L54.8895 49.508L56.9775 52.514V53ZM49.0215 48.32V47.024L52.7475 46.52L52.4055 47.528H52.3695C52.3695 47.54 52.3695 47.546 52.3695 47.546C52.3695 47.726 52.0335 48.716 51.3615 50.516L49.0215 48.32ZM49.6515 53L49.0215 51.524V48.644L51.1995 50.696L50.4075 53H49.6515ZM49.0215 53V52.172L49.3815 53H49.0215ZM52.3695 44.792V44.954H52.9275V46.268L51.0915 46.52L52.3695 44.792ZM49.0215 42.704L51.6315 39.68H52.7835V42.614H52.3695V44.36L50.9115 46.34L49.0215 46.592V42.704ZM49.0215 40.904L50.1555 39.68H51.2715L49.0215 42.308V40.904ZM49.0215 39.68H49.8675L49.0215 40.562V39.68ZM53.6295 44.954V44.108L56.7795 43.514V43.82L53.1615 46.142V44.954H53.6295ZM54.7095 39.68L56.7795 41.498V43.262L53.6295 43.856V42.614H53.1615V39.68H54.7095ZM55.5375 46.862L53.3055 46.286L54.9615 45.17L55.5375 46.862ZM56.8695 47.294L55.9515 46.934L55.7355 46.25L56.8695 47.294ZM56.7795 45.098L55.6815 46.088L55.3035 45.116L56.7795 44.18V45.098ZM66.2818 46.556L65.2738 47.816L62.8978 46.592V46.322L66.2818 45.98V46.556ZM66.2818 48.212L65.5618 47.852L66.2818 46.97V48.212ZM62.8258 49.976H61.9618L62.2138 47.204H62.8978V46.844L65.4538 48.158L62.8258 49.976ZM66.2818 50.714L62.8978 52.136V50.192L65.5618 48.356L66.2818 48.716V50.714ZM66.2818 53H62.8978V52.514L66.2818 51.092V53ZM61.4578 49.976V50.21L58.7758 47.816L61.4578 46.772V47.204H61.9798L61.7098 49.976H61.4578ZM58.0918 51.596V48.212L58.5778 48.032L61.4578 50.606V52.694L58.0918 51.596ZM58.0918 53V51.902L61.4578 53H58.0918ZM59.3338 44.576L61.4578 45.944V46.52L59.5858 47.276L59.3338 44.576ZM58.0918 43.982L58.9738 44.558L59.1898 47.24L58.0918 47.672V43.982ZM62.8978 44.468L63.1498 44.522L62.8978 44.9V44.468ZM58.0918 43.496L61.4578 44.18V45.764L58.0918 43.586V43.496ZM58.0918 42.326L58.6138 41.786L65.1118 41.192L63.0778 44.324L62.8978 44.288V42.578H61.4578V43.982L58.0918 43.28V42.326ZM60.7378 39.68H65.9398L65.1298 40.922L58.9198 41.48L60.7378 39.68ZM65.6158 45.836L62.8978 46.124V45.404L65.1658 41.912L65.6158 45.836ZM66.2818 45.62L65.8498 45.656L65.3998 41.75L66.2818 40.4V45.62ZM73.9915 49.724L72.2095 47.168V46.7L73.6855 47.33L73.9915 49.724ZM75.5575 51.002L75.2155 51.362L74.1715 49.868L73.8835 47.492L75.5575 48.212V51.002ZM70.9495 48.644L67.6015 48.392V48.266L70.9495 46.736V48.644ZM72.2095 48.752V47.528L73.0915 48.824L72.2095 48.752ZM73.7035 52.748L67.6015 50.534V48.644L70.9495 48.896V50.048H72.2095V48.968L73.0735 49.04L74.8915 51.668L73.7035 52.748ZM73.4335 53H67.6015V50.786L73.4875 52.928L73.4335 53ZM67.6015 47.132V46.016L70.9495 46.34V46.52L68.1775 47.798L67.6015 47.132ZM67.6015 47.6L67.8175 47.852L67.6015 47.96V47.6ZM69.9775 43.424L70.9495 45.26V46.178L69.4915 46.052L69.9775 43.424ZM67.6015 39.68H67.8715L69.7075 43.226L69.2395 45.854L67.6015 45.692V39.68ZM72.2095 43.82L73.7395 44.486L72.2095 45.674V43.82ZM70.9495 43.28V44.918L69.8515 42.812L70.9495 43.28ZM75.5575 42.02V42.884L73.7755 44.252L72.2095 43.586V42.614H70.9495V43.046L69.8875 42.596L68.5555 40.058L75.5575 42.02ZM73.4335 39.68L75.5575 41.57V41.75L68.6275 39.788L68.5555 39.68H73.4335ZM75.5575 47.888L72.2095 46.448V46.052L75.5575 43.46V47.888ZM82.5708 50.048L82.2828 50.552L82.0488 50.048H82.5708ZM82.8228 47.474H80.7888L80.3208 46.484L82.8228 46.664V47.474ZM83.3268 50.048V50.444L82.6428 51.326L82.3728 50.75L82.7868 50.048H83.3268ZM83.3268 53L82.7508 51.596L83.3268 50.84V53ZM80.2308 47.474V49.31L78.1068 49.796L80.0688 46.556L80.5188 47.474H80.2308ZM81.9048 53L77.3508 51.344L78.1248 50.048L80.2308 49.58V50.048H81.6528L82.8948 53H81.9048ZM76.8828 53V52.172L77.2248 51.614L81.0768 53H76.8828ZM76.8828 48.518V47.636L79.8888 46.484L78.3408 49.04L76.8828 48.518ZM76.8828 48.806L78.1248 49.256L76.8828 51.308V48.806ZM79.5288 44.72L79.8888 46.322L77.8368 47.132L79.5288 44.72ZM76.8828 43.118L79.0608 39.68H79.8168C79.7328 40.16 79.6368 40.88 79.5288 41.84L79.4208 44.306L77.6748 47.006L76.8828 47.312V43.118ZM76.8828 39.68H78.7368L76.8828 42.614V39.68ZM80.5368 42.614H80.2308V44.72H81.6528L80.1228 46.124L79.7088 44.306C79.7088 44.306 79.7448 43.58 79.8168 42.128L80.5368 42.614ZM83.3268 40.724V42.614H80.8968L79.8888 41.786L80.1048 40.148L83.3268 40.724ZM83.3268 39.68V40.382L80.1228 39.842V39.68H83.3268ZM82.8228 44.72V46.394L80.3568 46.232L82.0848 44.72H82.8228ZM92.5029 48.05L90.1449 48.464L88.7409 46.466L92.5029 47.6V48.05ZM92.5029 51.668L90.3969 48.644L92.5029 48.284V51.668ZM87.8949 50.462L87.0309 50.912L87.8949 48.428V50.462ZM89.1549 49.814V47.528H88.2009L88.5249 46.592L90.3429 49.184L89.1549 49.814ZM87.8949 53H86.4729L87.1029 51.218L87.8949 50.804V53ZM92.5029 53H89.1549V50.156L90.4149 49.508L92.5029 52.514V53ZM84.5469 48.32V47.024L88.2729 46.52L87.9309 47.528H87.8949C87.8949 47.54 87.8949 47.546 87.8949 47.546C87.8949 47.726 87.5589 48.716 86.8869 50.516L84.5469 48.32ZM85.1769 53L84.5469 51.524V48.644L86.7249 50.696L85.9329 53H85.1769ZM84.5469 53V52.172L84.9069 53H84.5469ZM87.8949 44.792V44.954H88.4529V46.268L86.6169 46.52L87.8949 44.792ZM84.5469 42.704L87.1569 39.68H88.3089V42.614H87.8949V44.36L86.4369 46.34L84.5469 46.592V42.704ZM84.5469 40.904L85.6809 39.68H86.7969L84.5469 42.308V40.904ZM84.5469 39.68H85.3929L84.5469 40.562V39.68ZM89.1549 44.954V44.108L92.3049 43.514V43.82L88.6869 46.142V44.954H89.1549ZM90.2349 39.68L92.3049 41.498V43.262L89.1549 43.856V42.614H88.6869V39.68H90.2349ZM91.0629 46.862L88.8309 46.286L90.4869 45.17L91.0629 46.862ZM92.3949 47.294L91.4769 46.934L91.2609 46.25L92.3949 47.294ZM92.3049 45.098L91.2069 46.088L90.8289 45.116L92.3049 44.18V45.098ZM100.979 46.394V48.572L97.8472 46.412L100.691 46.124L100.979 46.394ZM101.573 46.916V49.058L101.267 48.752L101.159 46.538L101.573 46.916ZM96.9652 48.644V48.842L94.6252 48.95L94.9312 48.644H96.9652ZM98.2252 48.572V47.906L96.0832 47.708L97.5952 46.484L100.367 48.428L98.2252 48.572ZM101.573 51.056L101.069 51.506L94.1752 51.56L93.6172 51.056V49.958L94.4632 49.148L96.9652 49.058V50.048H98.2252V48.806L100.385 48.644L101.573 49.472V51.056ZM99.4672 52.982H98.6212C98.4772 52.982 98.2912 52.982 98.0632 52.982C97.8112 52.994 97.6312 53 97.5232 53H95.7412L94.4272 51.776L100.835 51.74L99.4672 52.982ZM95.1112 47.006L97.4512 46.412L95.8672 47.672L95.1112 47.006ZM93.6172 48.644H94.6072L93.6172 49.436V48.644ZM94.7872 46.7L95.0932 44.198L97.4152 46.268L95.0032 46.898L94.7872 46.7ZM93.6172 45.692V42.632L94.8952 43.946L94.5172 46.484L93.6172 45.692ZM96.9652 43.946V44.702L98.3872 44.792L97.5232 46.16L94.4992 43.064L96.9652 43.946ZM93.6172 41.588L100.223 40.616L100.655 40.976L98.6752 44.09H98.2252V42.614H96.9652V43.712L94.3732 42.848L93.6172 41.948V41.588ZM95.7412 39.68H99.1612L99.9352 40.346L94.0312 41.192L95.7412 39.68ZM99.2692 44.864L100.439 45.908L97.8112 46.196L98.6752 44.828L99.2692 44.864ZM100.691 44.09H99.1432L100.007 42.74L100.691 44.09ZM101.321 41.57V44.09H101.015L100.259 42.632L101.069 41.336L101.321 41.57Z" fill="#FFFEFE"/>
<path d="M118 46.556L116.992 47.816L114.616 46.592V46.322L118 45.98V46.556ZM118 48.212L117.28 47.852L118 46.97V48.212ZM114.544 49.976H113.68L113.932 47.204H114.616V46.844L117.172 48.158L114.544 49.976ZM118 50.714L114.616 52.136V50.192L117.28 48.356L118 48.716V50.714ZM118 53H114.616V52.514L118 51.092V53ZM113.176 49.976V50.21L110.494 47.816L113.176 46.772V47.204H113.698L113.428 49.976H113.176ZM109.81 51.596V48.212L110.296 48.032L113.176 50.606V52.694L109.81 51.596ZM109.81 53V51.902L113.176 53H109.81ZM111.052 44.576L113.176 45.944V46.52L111.304 47.276L111.052 44.576ZM109.81 43.982L110.692 44.558L110.908 47.24L109.81 47.672V43.982ZM114.616 44.468L114.868 44.522L114.616 44.9V44.468ZM109.81 43.496L113.176 44.18V45.764L109.81 43.586V43.496ZM109.81 42.326L110.332 41.786L116.83 41.192L114.796 44.324L114.616 44.288V42.578H113.176V43.982L109.81 43.28V42.326ZM112.456 39.68H117.658L116.848 40.922L110.638 41.48L112.456 39.68ZM117.334 45.836L114.616 46.124V45.404L116.884 41.912L117.334 45.836ZM118 45.62L117.568 45.656L117.118 41.75L118 40.4V45.62ZM128.176 48.176V48.896L127.132 48.176H128.176ZM128.176 51.092L125.782 53L124.828 48.752C124.828 48.752 124.828 48.56 124.828 48.176H126.538L128.176 49.328V51.092ZM123.496 48.896L121.408 45.872L123.496 46.34V48.896ZM124.288 50.048H124.828V49.742L125.17 51.344L124.288 50.048ZM124.882 53L120.148 48.59V45.692L121.246 45.962L123.496 49.22V50.048H124.054L125.026 51.452L125.368 53H124.882ZM122.308 53C121.936 52.676 121.564 52.358 121.192 52.046C120.76 51.662 120.412 51.314 120.148 51.002V48.86L124.594 53H122.308ZM121.282 45.296L123.496 46.106V46.16L120.958 45.566L121.282 45.296ZM120.148 44.864L121.03 45.188L120.67 45.476L120.148 45.368V44.864ZM124.828 44.45V44.072L125.17 43.982L124.954 44.45H124.828ZM123.496 44.36V45.98L120.76 44.972L123.496 44.36ZM120.148 43.028L126.214 39.878L126.808 40.4L125.134 43.766L124.828 43.838V42.614H123.496V44.144L120.724 44.756L120.148 44.54V43.028ZM120.148 41.57L122.308 39.68L126.016 39.716L120.148 42.74V41.57ZM128.176 42.326V44.45H125.35L126.646 41.786L128.176 42.326ZM128.176 41.588V42.002L126.808 41.498L127.186 40.706L128.176 41.588ZM138.591 46.556L137.583 47.816L135.207 46.592V46.322L138.591 45.98V46.556ZM138.591 48.212L137.871 47.852L138.591 46.97V48.212ZM135.135 49.976H134.271L134.523 47.204H135.207V46.844L137.763 48.158L135.135 49.976ZM138.591 50.714L135.207 52.136V50.192L137.871 48.356L138.591 48.716V50.714ZM138.591 53H135.207V52.514L138.591 51.092V53ZM133.767 49.976V50.21L131.085 47.816L133.767 46.772V47.204H134.289L134.019 49.976H133.767ZM130.401 51.596V48.212L130.887 48.032L133.767 50.606V52.694L130.401 51.596ZM130.401 53V51.902L133.767 53H130.401ZM131.643 44.576L133.767 45.944V46.52L131.895 47.276L131.643 44.576ZM130.401 43.982L131.283 44.558L131.499 47.24L130.401 47.672V43.982ZM135.207 44.468L135.459 44.522L135.207 44.9V44.468ZM130.401 43.496L133.767 44.18V45.764L130.401 43.586V43.496ZM130.401 42.326L130.923 41.786L137.421 41.192L135.387 44.324L135.207 44.288V42.578H133.767V43.982L130.401 43.28V42.326ZM133.047 39.68H138.249L137.439 40.922L131.229 41.48L133.047 39.68ZM137.925 45.836L135.207 46.124V45.404L137.475 41.912L137.925 45.836ZM138.591 45.62L138.159 45.656L137.709 41.75L138.591 40.4V45.62ZM147.201 49.724L145.419 47.168V46.7L146.895 47.33L147.201 49.724ZM148.767 51.002L148.425 51.362L147.381 49.868L147.093 47.492L148.767 48.212V51.002ZM144.159 48.644L140.811 48.392V48.266L144.159 46.736V48.644ZM145.419 48.752V47.528L146.301 48.824L145.419 48.752ZM146.913 52.748L140.811 50.534V48.644L144.159 48.896V50.048H145.419V48.968L146.283 49.04L148.101 51.668L146.913 52.748ZM146.643 53H140.811V50.786L146.697 52.928L146.643 53ZM140.811 47.132V46.016L144.159 46.34V46.52L141.387 47.798L140.811 47.132ZM140.811 47.6L141.027 47.852L140.811 47.96V47.6ZM143.187 43.424L144.159 45.26V46.178L142.701 46.052L143.187 43.424ZM140.811 39.68H141.081L142.917 43.226L142.449 45.854L140.811 45.692V39.68ZM145.419 43.82L146.949 44.486L145.419 45.674V43.82ZM144.159 43.28V44.918L143.061 42.812L144.159 43.28ZM148.767 42.02V42.884L146.985 44.252L145.419 43.586V42.614H144.159V43.046L143.097 42.596L141.765 40.058L148.767 42.02ZM146.643 39.68L148.767 41.57V41.75L141.837 39.788L141.765 39.68H146.643ZM148.767 47.888L145.419 46.448V46.052L148.767 43.46V47.888ZM156.68 50.048L156.392 50.552L156.158 50.048H156.68ZM156.932 47.474H154.898L154.43 46.484L156.932 46.664V47.474ZM157.436 50.048V50.444L156.752 51.326L156.482 50.75L156.896 50.048H157.436ZM157.436 53L156.86 51.596L157.436 50.84V53ZM154.34 47.474V49.31L152.216 49.796L154.178 46.556L154.628 47.474H154.34ZM156.014 53L151.46 51.344L152.234 50.048L154.34 49.58V50.048H155.762L157.004 53H156.014ZM150.992 53V52.172L151.334 51.614L155.186 53H150.992ZM150.992 48.518V47.636L153.998 46.484L152.45 49.04L150.992 48.518ZM150.992 48.806L152.234 49.256L150.992 51.308V48.806ZM153.638 44.72L153.998 46.322L151.946 47.132L153.638 44.72ZM150.992 43.118L153.17 39.68H153.926C153.842 40.16 153.746 40.88 153.638 41.84L153.53 44.306L151.784 47.006L150.992 47.312V43.118ZM150.992 39.68H152.846L150.992 42.614V39.68ZM154.646 42.614H154.34V44.72H155.762L154.232 46.124L153.818 44.306C153.818 44.306 153.854 43.58 153.926 42.128L154.646 42.614ZM157.436 40.724V42.614H155.006L153.998 41.786L154.214 40.148L157.436 40.724ZM157.436 39.68V40.382L154.232 39.842V39.68H157.436ZM156.932 44.72V46.394L154.466 46.232L156.194 44.72H156.932ZM164.83 50.084L164.398 49.364L164.902 46.502L166.558 46.88L164.83 50.084ZM166.846 48.32V46.952L168.286 47.294L166.846 48.32ZM170.068 50.156L166.846 52.262V48.644L168.43 47.51L170.068 47.888V50.156ZM170.068 53H166.846V52.604L170.068 50.516V53ZM163.318 47.42L164.704 46.556L164.254 49.094L163.318 47.42ZM162.76 53H160.546L159.556 51.704V49.94L162.76 47.96V53ZM159.556 53V52.316L160.078 53H159.556ZM160.186 45.17L164.578 46.34L163.21 47.186L162.76 46.376V47.456L162.382 47.69L160.186 45.17ZM159.556 45.134L159.826 45.224L162.04 47.744L159.556 49.274V45.134ZM164.11 42.83L164.722 44.036L164.704 46.16L161.95 45.404L164.11 42.83ZM159.556 41.3L161.95 39.68H162.49L163.966 42.524L161.734 45.188L159.556 44.594V41.3ZM159.556 39.68H161.302L159.556 40.868V39.68ZM165.658 42.524L168.106 44.72L164.938 46.124V43.892L165.658 42.524ZM167.134 39.68H169.096L170.068 40.436V43.622L168.286 44.414L165.838 42.2L167.134 39.68ZM170.068 39.68V40.04L169.582 39.68H170.068ZM167.242 46.808L166.846 46.736V46.376L166.666 46.682L165.01 46.304L168.574 44.72L167.242 46.808ZM170.068 47.366L167.566 46.772L168.88 44.684L170.068 44.144V47.366ZM177.722 46.844L176.12 46.322L178.244 45.404L177.722 46.844ZM177.668 47.024L177.524 47.456C177.524 47.456 177.53 47.84 177.542 48.608L176.498 48.842L176.012 46.484L177.668 47.024ZM177.542 53H177.308L176.66 49.112L177.542 48.896V53ZM174.158 48.608C174.158 47.84 174.158 47.456 174.158 47.456C174.158 47.456 174.098 47.264 173.978 46.88L175.724 46.502L176.444 50.102L174.158 48.608ZM174.158 53V48.968L176.516 50.444L176.948 53H174.158ZM173.078 44.36L175.616 46.322L173.888 46.628L173.078 44.36ZM175.634 43.73L175.724 46.16L173.132 44.252L175.634 43.73ZM172.07 41.552L175.184 40.454L175.76 42.938L175.598 43.478L173.024 44.018L172.934 43.964L172.07 41.552ZM171.404 39.68H174.986L175.076 40.04L171.944 41.156L171.404 39.68ZM176.192 42.164L178.406 44.936L178.352 45.08L175.922 46.124C175.85 44.42 175.814 43.568 175.814 43.568C175.934 43.136 176.06 42.668 176.192 42.164ZM176.804 39.68H177.398L179.648 41.408L178.496 44.666L176.264 41.858L176.804 39.68ZM180.278 39.68L179.792 41.048L178.01 39.68H180.278Z" fill="url(#paint3_linear_5717_3000)"/>
<defs>
<filter id="filter0_bi_5717_3000" x="-10" y="-14" width="222" height="122" filterUnits="userSpaceOnUse" color-interpolation-filters="sRGB">
<feFlood flood-opacity="0" result="BackgroundImageFix"/>
<feGaussianBlur in="BackgroundImageFix" stdDeviation="5"/>
<feComposite in2="SourceAlpha" operator="in" result="effect1_backgroundBlur_5717_3000"/>
<feBlend mode="normal" in="SourceGraphic" in2="effect1_backgroundBlur_5717_3000" result="shape"/>
<feColorMatrix in="SourceAlpha" type="matrix" values="0 0 0 0 0 0 0 0 0 0 0 0 0 0 0 0 0 0 127 0" result="hardAlpha"/>
<feOffset/>
<feGaussianBlur stdDeviation="3"/>
<feComposite in2="hardAlpha" operator="arithmetic" k2="-1" k3="1"/>
<feColorMatrix type="matrix" values="0 0 0 0 1 0 0 0 0 0.993333 0 0 0 0 0.994356 0 0 0 0.06 0"/>
<feBlend mode="normal" in2="shape" result="effect2_innerShadow_5717_3000"/>
</filter>
<linearGradient id="paint0_linear_5717_3000" x1="-7" y1="-20.8572" x2="241.442" y2="55.4188" gradientUnits="userSpaceOnUse">
<stop stop-color="#FFFDFD"/>
<stop offset="1" stop-color="white" stop-opacity="0"/>
</linearGradient>
<linearGradient id="paint1_linear_5717_3000" x1="74.3681" y1="-44.5898" x2="100.381" y2="107.023" gradientUnits="userSpaceOnUse">
<stop offset="0.212158" stop-color="#E8B24F" stop-opacity="0"/>
<stop offset="0.461183" stop-color="#E8B24F"/>
<stop offset="0.671825" stop-color="#FFA500"/>
<stop offset="0.933251" stop-color="#FFA500" stop-opacity="0"/>
</linearGradient>
<linearGradient id="paint2_linear_5717_3000" x1="29.1354" y1="60.5457" x2="39.0235" y2="34.0437" gradientUnits="userSpaceOnUse">
<stop stop-color="#BA8333"/>
<stop offset="0.963542" stop-color="#C29B4C"/>
</linearGradient>
<linearGradient id="paint3_linear_5717_3000" x1="44.5429" y1="49.4321" x2="180.463" y2="49.4321" gradientUnits="userSpaceOnUse">
<stop stop-color="#BA8333"/>
<stop offset="0.963542" stop-color="#C29B4C"/>
</linearGradient>
</defs>
</svg>
